<?xml version="1.0" encoding="utf-8"?>
<!-- Generator: Adobe Illustrator 22.1.0, SVG Export Plug-In . SVG Version: 6.00 Build 0)  -->
<svg version="1.1" id="Capa_1" xmlns="http://www.w3.org/2000/svg" xmlns:xlink="http://www.w3.org/1999/xlink" x="0px" y="0px"
	 viewBox="0 0 141.7 141.7" style="enable-background:new 0 0 141.7 141.7;" xml:space="preserve">
<style type="text/css">
	.st0{fill:none;stroke:#7CC8D1;stroke-width:2;stroke-miterlimit:10;}
	.st1{fill:#7CC8D1;}
	.st2{fill:none;stroke:#7CC8D1;stroke-width:2;stroke-linecap:round;stroke-linejoin:round;stroke-miterlimit:10;}
</style>
<g>
	<path class="st0" d="M9.2,80.7l-1.1-3.8c-0.1-0.3,0.2-0.6,0.5-0.5l3.7,1.4l3.3-2.2c0.3-0.2,0.7,0,0.6,0.4l-0.2,4l3.1,2.4
		c0.3,0.2,0.2,0.6-0.1,0.7l-3.8,1l-1.4,3.7c-0.1,0.3-0.5,0.4-0.7,0.1L11,84.5l-4-0.1c-0.3,0-0.5-0.4-0.3-0.7L9.2,80.7z"/>
	<path class="st0" d="M115.6,75.7l3.4,2.1c0.3,0.2,0.2,0.6-0.1,0.7l-3.7,1.4l-0.9,3.9c-0.1,0.3-0.5,0.4-0.7,0.2l-2.5-3.1l-3.9,0.3
		c-0.3,0-0.6-0.3-0.4-0.6l2.1-3.3l-1.5-3.7c-0.1-0.3,0.2-0.6,0.5-0.5l3.8,1l3-2.6c0.3-0.2,0.7-0.1,0.7,0.3L115.6,75.7z"/>
	<circle class="st1" cx="21.3" cy="58" r="1.4"/>
	<circle class="st1" cx="133.7" cy="56.1" r="1.4"/>
	<circle class="st1" cx="31.4" cy="88.4" r="1.4"/>
	<circle class="st1" cx="125.4" cy="98.5" r="1.4"/>
	<ellipse class="st2" cx="71.2" cy="98.6" rx="35.4" ry="6.5"/>
	<g>
		<path class="st1" d="M41.2,60.3l11.4-11.1c0.2-0.2,0.4-0.3,0.7-0.5c0.3-0.1,0.6-0.2,0.8-0.2h3.4c1.2,0,1.8,0.3,1.8,0.9
			c0.1,0.6-0.6,1.6-1.9,2.9l-0.1,0.1c-1.4,1.3-2.7,2.3-4.1,2.9c-1.4,0.6-2.7,0.9-3.9,0.9h-1.9l-4.1,4c-0.2,0.2-0.5,0.4-0.9,0.5
			c-0.4,0.1-0.7,0.2-1,0.2c-0.3,0-0.5-0.1-0.6-0.2C40.9,60.7,41,60.5,41.2,60.3z M49.3,54.6h1.9c0.6,0,1.2-0.2,1.8-0.5
			c0.7-0.3,1.3-0.8,2-1.5l0.2-0.2c0.7-0.6,1-1.1,1-1.5c0-0.3-0.2-0.5-0.8-0.5h-1.9L49.3,54.6z"/>
		<path class="st1" d="M53.1,57.2l8.2-8c0.2-0.2,0.5-0.4,0.8-0.5c0.3-0.1,0.6-0.2,1-0.2s0.5,0.1,0.6,0.2c0.1,0.1,0,0.3-0.2,0.5
			l-8.2,8c-1.3,1.3-1.4,2-0.1,2c1.2,0,2.5-0.7,3.9-2l8.2-8c0.2-0.2,0.5-0.4,0.8-0.5c0.3-0.1,0.6-0.2,1-0.2s0.5,0.1,0.6,0.2
			c0.1,0.1,0,0.3-0.2,0.5l-8.2,8c-1.4,1.3-2.8,2.3-4.1,3c-1.4,0.6-2.7,0.9-3.9,0.9c-1.2,0-1.9-0.3-2-0.9
			C51.1,59.6,51.7,58.6,53.1,57.2z"/>
		<path class="st1" d="M59.4,60.3l11.3-11.1c0.2-0.2,0.5-0.4,0.9-0.5c0.3-0.1,0.7-0.2,1-0.2c0.4,0,0.6,0.1,0.7,0.2
			c0.1,0.1,0,0.5-0.3,1l-3.2,6.4l7-6.9c0.2-0.2,0.5-0.4,0.8-0.5c0.3-0.1,0.6-0.2,1-0.2c0.3,0,0.5,0.1,0.6,0.2c0.1,0.1,0,0.3-0.2,0.5
			L67.7,60.3c-0.2,0.2-0.5,0.4-0.9,0.5c-0.3,0.1-0.7,0.2-1,0.2c-0.6,0-0.8-0.2-0.6-0.7l3.3-6.9l-7,6.9c-0.2,0.2-0.5,0.4-0.9,0.5
			c-0.3,0.1-0.7,0.2-1,0.2c-0.3,0-0.5-0.1-0.6-0.2C59.1,60.7,59.2,60.5,59.4,60.3z"/>
		<path class="st1" d="M79.2,49.5c0.3-0.3,0.5-0.5,0.9-0.7c0.3-0.2,0.6-0.3,0.8-0.3h7.2c0.2,0,0.3,0.1,0.2,0.3
			c-0.1,0.2-0.2,0.4-0.5,0.7c-0.3,0.3-0.6,0.5-0.9,0.7c-0.3,0.2-0.6,0.3-0.8,0.3h-2.5l-10,9.8c-0.2,0.2-0.5,0.4-0.9,0.5
			c-0.3,0.1-0.7,0.2-1,0.2c-0.3,0-0.5-0.1-0.6-0.2c-0.1-0.1,0-0.3,0.2-0.5l10-9.8h-2.5c-0.2,0-0.3-0.1-0.2-0.3
			C78.8,50,79,49.8,79.2,49.5z"/>
		<path class="st1" d="M80.2,57.2l4.8-4.8c1.4-1.4,2.7-2.3,4.1-3c1.3-0.6,2.6-0.9,3.8-0.9c1.2,0,1.9,0.3,1.9,0.9
			c0.1,0.6-0.5,1.6-1.9,3l-4.8,4.8c-1.4,1.4-2.7,2.3-4.1,3c-1.4,0.6-2.6,0.9-3.9,0.9c-1.2,0-1.9-0.3-2-0.9
			C78.2,59.6,78.8,58.6,80.2,57.2z M82.4,57.2c-1.3,1.3-1.4,2-0.2,2c1.2,0,2.4-0.7,3.8-2l4.8-4.8c1.3-1.3,1.4-2,0.2-2
			c-1.2,0-2.4,0.7-3.7,2L82.4,57.2z"/>
	</g>
	<path class="st2" d="M71.2,105.1c-19.5,0-35.4-2.9-35.4-6.5v9.5c0,3.6,15.8,6.5,35.4,6.5s35.4-2.9,35.4-6.5v-9.5
		C106.5,102.2,90.7,105.1,71.2,105.1z"/>
	<ellipse transform="matrix(0.9279 -0.3729 0.3729 0.9279 -16.0526 29.2785)" class="st2" cx="67.7" cy="56.1" rx="35.5" ry="17"/>
	<path class="st2" d="M104.3,51.2c-0.2-0.5-3.7-8.3-3.7-8.3l0,0c0,0,0,0,0,0c3.5,8.7-8.4,21.7-26.6,29c-18.2,7.3-35.8,6.2-39.3-2.6
		l0,0l4.3,9.5c4.6,7.6,21.4,8.3,38.6,1.3C95.9,72.9,107.8,59.9,104.3,51.2z"/>
	<path class="st2" d="M71.2,114.6c-3.7,0-7.2-0.1-10.6-0.3c-18.9-0.1-34-3-34-6.5v9.5c0,3.6,15.8,6.5,35.4,6.5
		c19.5,0,35.4-2.9,35.4-6.5v-4.8C90.8,113.8,81.5,114.6,71.2,114.6z"/>
	<g>
		<path class="st2" d="M35.8,108.1v-4.7c-5.7,1.2-9.2,2.7-9.2,4.4c0,3.5,15.1,6.4,34,6.5C46.2,113.5,35.8,111,35.8,108.1z"/>
	</g>
	<path class="st2" d="M97.3,116.6v0.7c0,3.6-15.8,6.5-35.4,6.5c-8.4,0-16.1-0.5-22.2-1.5c2.1,3.2,17,5.8,35.1,5.8
		c19.5,0,35.4-2.9,35.4-6.5C110.2,119.6,105.2,117.8,97.3,116.6z"/>
	<path class="st2" d="M74.9,128.2c-18.1,0-33-2.5-35.1-5.8c-0.1,0-0.2,0-0.3,0v8.8c0,3.6,15.8,6.5,35.4,6.5
		c19.5,0,35.4-2.9,35.4-6.5v-9.5C110.2,125.3,94.4,128.2,74.9,128.2z"/>
	<line class="st2" x1="60" y1="21.8" x2="60" y2="33.1"/>
	<line class="st2" x1="70.1" y1="4" x2="70.1" y2="30.3"/>
	<line class="st2" x1="80.3" y1="10" x2="80.3" y2="30.3"/>
</g>
</svg>
