<?xml version="1.0" encoding="utf-8"?>
<!-- Generator: Adobe Illustrator 22.1.0, SVG Export Plug-In . SVG Version: 6.00 Build 0)  -->
<svg version="1.1" id="Capa_1" xmlns="http://www.w3.org/2000/svg" xmlns:xlink="http://www.w3.org/1999/xlink" x="0px" y="0px"
	 viewBox="0 0 100 100" style="enable-background:new 0 0 100 100;" xml:space="preserve">
<style type="text/css">
	.st0{fill:#4CA7B5;}
</style>
<g>
	<path class="st0" d="M47.1,98.5c1.4,2,4.4,2,5.7,0l25.9-37.4c10.8-14.4,9.2-38-3.3-50.6C68.6,3.7,59.6,0,50,0S31.4,3.7,24.6,10.5
		C12,23.1,10.5,46.7,21.2,61L47.1,98.5z M48.6,22.9c8.6-1.1,15.9,6.2,14.8,14.8C62.6,43.6,57.9,48.3,52,49
		c-8.6,1.1-15.9-6.2-14.8-14.8C38,28.4,42.8,23.7,48.6,22.9z"/>
</g>
</svg>
