<?xml version="1.0" encoding="utf-8"?>
<!-- Generator: Adobe Illustrator 22.1.0, SVG Export Plug-In . SVG Version: 6.00 Build 0)  -->
<svg version="1.1" id="Capa_1" xmlns="http://www.w3.org/2000/svg" xmlns:xlink="http://www.w3.org/1999/xlink" x="0px" y="0px"
	 viewBox="0 0 100 100" style="enable-background:new 0 0 100 100;" xml:space="preserve">
<style type="text/css">
	.st0{fill:#4CA7B5;}
</style>
<g>
	<g>
		<path class="st0" d="M100,78.9c0.2,1.6-0.3,3-1.5,4.2l-14.1,14c-0.6,0.7-1.5,1.3-2.5,1.8c-1,0.5-2,0.8-3,1c-0.1,0-0.3,0-0.6,0.1
			c-0.4,0-0.8,0.1-1.4,0.1c-1.3,0-3.5-0.2-6.5-0.7s-6.7-1.6-11-3.4c-4.3-1.8-9.3-4.5-14.8-8.1C39.1,84.2,33.2,79.3,27,73
			c-4.9-4.9-9-9.5-12.3-14c-3.2-4.4-5.9-8.6-7.8-12.3c-2-3.8-3.5-7.2-4.4-10.3c-1-3.1-1.7-5.7-2-7.9s-0.5-4-0.4-5.2
			c0.1-1.3,0.1-2,0.1-2.1c0.1-1,0.5-2,1-3s1.1-1.9,1.8-2.5L17,1.5c1-1,2.1-1.5,3.4-1.5c0.9,0,1.7,0.3,2.4,0.8s1.3,1.2,1.8,2
			l11.3,21.5c0.6,1.1,0.8,2.4,0.5,3.7c-0.3,1.3-0.9,2.5-1.8,3.4l-5.2,5.2c-0.1,0.1-0.3,0.4-0.4,0.7s-0.2,0.6-0.2,0.8
			c0.3,1.5,0.9,3.2,1.9,5.1c0.8,1.7,2.2,3.8,3.9,6.2c1.8,2.4,4.3,5.2,7.5,8.4c3.2,3.2,6,5.8,8.5,7.6c2.5,1.8,4.5,3.1,6.2,4
			c1.7,0.8,2.9,1.4,3.8,1.5l1.3,0.3c0.1,0,0.4-0.1,0.7-0.2c0.3-0.1,0.5-0.2,0.7-0.4l6-6.1c1.3-1.1,2.8-1.7,4.4-1.7
			c1.2,0,2.2,0.2,2.9,0.6h0.1l20.4,12.1C98.8,76.3,99.7,77.5,100,78.9z"/>
	</g>
</g>
</svg>
