<?xml version="1.0" encoding="utf-8"?>
<!-- Generator: Adobe Illustrator 22.1.0, SVG Export Plug-In . SVG Version: 6.00 Build 0)  -->
<svg version="1.1" id="Capa_1" xmlns="http://www.w3.org/2000/svg" xmlns:xlink="http://www.w3.org/1999/xlink" x="0px" y="0px"
	 viewBox="0 0 100 100" style="enable-background:new 0 0 100 100;" xml:space="preserve">
<style type="text/css">
	.st0{fill:#4CA7B5;}
</style>
<g>
	<path class="st0" d="M100,48.7c0,26.9-22,48.7-49.1,48.7c-8.6,0-16.7-2.2-23.7-6.1L0,100l8.9-26.1c-4.5-7.3-7-16-7-25.1
		C1.8,21.8,23.8,0,50.9,0C78,0,100,21.8,100,48.7z M50.9,7.8c-22.8,0-41.3,18.4-41.3,41c0,9,2.9,17.3,7.9,24l-5.2,15.2l15.9-5
		c6.5,4.3,14.3,6.8,22.7,6.8c22.8,0,41.3-18.4,41.3-41C92.2,26.1,73.7,7.8,50.9,7.8z M75.7,59.9c-0.3-0.5-1.1-0.8-2.3-1.4
		c-1.2-0.6-7.1-3.5-8.2-3.9c-1.1-0.4-1.9-0.6-2.7,0.6c-0.8,1.2-3.1,3.9-3.8,4.7c-0.7,0.8-1.4,0.9-2.6,0.3c-1.2-0.6-5.1-1.9-9.7-5.9
		c-3.6-3.2-6-7.1-6.7-8.3c-0.7-1.2-0.1-1.8,0.5-2.4c0.5-0.5,1.2-1.4,1.8-2.1c0.6-0.7,0.8-1.2,1.2-2c0.4-0.8,0.2-1.5-0.1-2.1
		c-0.3-0.6-2.7-6.5-3.7-8.9c-1-2.4-2-2-2.7-2c-0.7,0-1.5-0.1-2.3-0.1c-0.8,0-2.1,0.3-3.2,1.5c-1.1,1.2-4.2,4.1-4.2,10
		c0,5.9,4.3,11.6,4.9,12.3c0.6,0.8,8.3,13.2,20.6,18c12.2,4.8,12.2,3.2,14.4,3c2.2-0.2,7.1-2.9,8.1-5.7C76,62.8,76,60.4,75.7,59.9z"
		/>
</g>
</svg>
