<svg xmlns="http://www.w3.org/2000/svg" viewBox="0 0 15 15">
  <defs>
    <style>
      .cls-1 {
        fill: #a1a5a6;
      }
    </style>
  </defs>
  <path id="icon-foqus" class="cls-1" d="M-1388.026,14.549a8.924,8.924,0,0,0,2.575-2.575,1.767,1.767,0,0,1,.451,1.191A1.834,1.834,0,0,1-1386.835,15,1.766,1.766,0,0,1-1388.026,14.549ZM-1400,7.5a7.528,7.528,0,0,1,7.5-7.5,7.484,7.484,0,0,1,7.436,6.567A8.462,8.462,0,0,1-1385,7.5a7.487,7.487,0,0,1-7.5,7.5A7.507,7.507,0,0,1-1400,7.5Zm2.7,0a4.808,4.808,0,0,0,4.8,4.8,4.808,4.808,0,0,0,4.8-4.8,4.808,4.808,0,0,0-4.8-4.8A4.808,4.808,0,0,0-1397.3,7.5Z" transform="translate(1400)"/>
</svg>
