<?xml version="1.0" encoding="utf-8"?>
<!-- Generator: Adobe Illustrator 22.1.0, SVG Export Plug-In . SVG Version: 6.00 Build 0)  -->
<svg version="1.1" id="Layer_1" xmlns="http://www.w3.org/2000/svg" xmlns:xlink="http://www.w3.org/1999/xlink" x="0px" y="0px"
	 viewBox="0 0 100 100" style="enable-background:new 0 0 100 100;" xml:space="preserve">
<style type="text/css">
	.st0{fill:#4CA7B5;}
</style>
<path class="st0" d="M86.5,0h-73C6,0,0,6,0,13.5v73C0,94,6,100,13.5,100h36l0.1-35.7h-9.3c-1.2,0-2.2-1-2.2-2.2l0-11.5
	c0-1.2,1-2.2,2.2-2.2h9.3V37.2c0-12.9,7.9-19.9,19.4-19.9h9.5c1.2,0,2.2,1,2.2,2.2v9.7c0,1.2-1,2.2-2.2,2.2l-5.8,0
	c-6.3,0-7.5,3-7.5,7.3v9.6h13.8c1.3,0,2.3,1.1,2.2,2.4l-1.4,11.5c-0.1,1.1-1.1,1.9-2.2,1.9H65.2L65.1,100h21.4
	c7.4,0,13.5-6,13.5-13.5V13.5C100,6,94,0,86.5,0z"/>
</svg>
