<svg viewBox="0 0 15 15" xmlns="http://www.w3.org/2000/svg"><path d="m-1388.026 14.549a8.924 8.924 0 0 0 2.575-2.575 1.767 1.767 0 0 1 .451 1.191 1.834 1.834 0 0 1 -1.835 1.835 1.766 1.766 0 0 1 -1.191-.451zm-11.974-7.049a7.528 7.528 0 0 1 7.5-7.5 7.484 7.484 0 0 1 7.436 6.567 8.462 8.462 0 0 1 .064.933 7.487 7.487 0 0 1 -7.5 7.5 7.507 7.507 0 0 1 -7.5-7.5zm2.7 0a4.808 4.808 0 0 0 4.8 4.8 4.808 4.808 0 0 0 4.8-4.8 4.808 4.808 0 0 0 -4.8-4.8 4.808 4.808 0 0 0 -4.8 4.8z" fill="#a1a5a6" transform="translate(1400)"/></svg>