<svg xmlns="http://www.w3.org/2000/svg" viewBox="0 0 320 43.647">
  <defs>
    <style>
      .cls-1 {
        fill: #454a4d;
      }
    </style>
  </defs>
  <g id="logo_bn" data-name="logo bn" transform="translate(0 0)">
    <path id="Union_2" data-name="Union 2" class="cls-1" d="M290.255,43.647,298.9,30.634,287.345,11.962h9.941l6.224,11.4,6.709-11.4H320L300.116,43.647ZM84.061,36.7V13.741H99.338l-.081,2.667a23.447,23.447,0,0,1,5.577-2.505,20.238,20.238,0,0,1,5.577-.727,16,16,0,0,1,10.1,3.071,8.617,8.617,0,0,1,3.476,7.113,8.873,8.873,0,0,1-3.96,7.517,15.2,15.2,0,0,1-9.215,2.748,19.691,19.691,0,0,1-5.739-.808,29.038,29.038,0,0,1-5.739-2.425v3.4l.081,2.182V36.7Zm18.995-20.773a18.786,18.786,0,0,0-3.8,2.263V28.694a27.49,27.49,0,0,0,3.961,2.1,7.759,7.759,0,0,0,3.071.647c.808,0,1.293-.242,1.374-.808,0-.161.081-1.051.081-2.748V18.024a11.578,11.578,0,0,0-.081-2.1c-.161-.566-.566-.809-1.293-.809A8.52,8.52,0,0,0,103.056,15.923ZM49.143,33.3a12.135,12.135,0,0,1-4.365-4.2A8.376,8.376,0,0,1,43.4,24.734a8.349,8.349,0,0,1,1.213-4.2,10.892,10.892,0,0,1,3.314-3.637,20.014,20.014,0,0,1,5.739-2.829,23.92,23.92,0,0,1,6.87-.97,22.527,22.527,0,0,1,10.023,2.182c4.688,2.263,7.032,5.577,6.951,10.022H61.591l-4.2.162v6.223a5.083,5.083,0,0,0,.323,2.344c.4.647,1.374.89,2.991.89a18.5,18.5,0,0,0,6.871-1.293,18.862,18.862,0,0,0,5.9-3.557c.566-.485.889-.808,1.131-.97a1.326,1.326,0,0,1,.808-.162,1.21,1.21,0,0,1,.809.243.735.735,0,0,1,.323.647c0,.565-.647,1.293-2.021,2.263a22.309,22.309,0,0,1-6.547,2.991,28.38,28.38,0,0,1-7.6,1.131A21.345,21.345,0,0,1,49.143,33.3Zm8.649-18.024a6.091,6.091,0,0,0-.4,2.829v5.9l3.718.081h4.041v-5.9a20.2,20.2,0,0,0-.161-2.263,1.649,1.649,0,0,0-.4-.727c-.566-.566-1.7-.809-3.476-.809S58.2,14.711,57.792,15.277ZM.242,35.968.323,22.632,0,8.244H15.761a68.414,68.414,0,0,1,9.3.4A21.154,21.154,0,0,1,37.5,14.225a10.622,10.622,0,0,1,3.718,7.921,11.016,11.016,0,0,1-3.8,8A21.058,21.058,0,0,1,25.38,35.565c-1.293.161-2.425.242-3.4.323s-3.152.081-6.547.081Zm17.944-10.1.161,8.81a46.748,46.748,0,0,0,5.739-.242,23.126,23.126,0,0,0,4.041-.889,17.767,17.767,0,0,0,8.406-5.011A9.549,9.549,0,0,0,39.2,22.066a9.7,9.7,0,0,0-3.153-6.952Q30.472,9.537,19.561,9.538H18.348Zm112.432,9.781.081-7.437.081-6.547-.081-3.475-.081-3.88V13.5l15.439.081v.566l-.081,3.152-.081,4.931-.081,7.436.081,4.2.081,1.779Zm24.572-.324-.081-1.212.081-4.122.081-7.436V7.517l-.081-5.739V0h15.277V10.427l-.081,3.96V21.5l.161,12.852-.081.97ZM259.3,33.3v-4.93a33.118,33.118,0,0,0,9.618,1.859c2.991,0,4.527-.566,4.527-1.616a1.559,1.559,0,0,0-.808-1.213,32.881,32.881,0,0,0-5.577-1.939c-3.152-.97-5.334-1.94-6.547-3.072a4.935,4.935,0,0,1-1.779-3.718c0-2.02,1.132-3.718,3.4-5.011a17.9,17.9,0,0,1,8.891-1.939,22.753,22.753,0,0,1,9.619,1.455v5.011a24.156,24.156,0,0,0-9.942-2.425c-2.263,0-3.4.566-3.4,1.779,0,.323.243.566.727.889a37.6,37.6,0,0,0,5.416,1.859,16.642,16.642,0,0,1,6.709,3.233,5.494,5.494,0,0,1,1.94,4.042,6.02,6.02,0,0,1-3.153,5.415q-3.152,1.94-8.972,1.94A33.6,33.6,0,0,1,259.3,33.3Zm-20.773-.889a20.949,20.949,0,0,1-9.781,2.506,10.544,10.544,0,0,1-5.9-1.617,4.776,4.776,0,0,1-2.425-3.88,5.461,5.461,0,0,1,2.505-4.688c1.7-1.213,6.709-2.748,15.115-4.608.242-2.505-1.536-3.8-5.173-3.8a18.159,18.159,0,0,0-10.912,3.718V14.306a29.337,29.337,0,0,1,12.852-2.748q12.609,0,12.609,6.789V28.532a1.337,1.337,0,0,0,1.536,1.536,7.491,7.491,0,0,0,3.557-1.132v3.88a21.5,21.5,0,0,1-8.729,2.1C240.869,34.918,239.09,34.11,238.525,32.412Zm-6.871-6.547a2.777,2.777,0,0,0-1.7,2.506,2.227,2.227,0,0,0,.889,1.7,3.165,3.165,0,0,0,2.1.727,9.96,9.96,0,0,0,5.173-1.778V23.6A26.687,26.687,0,0,0,231.654,25.865Zm-51,8.568-.081-32.978L212.5,1.374V7.436H191.563v6.951h20.046V20.45H191.563v7.921h21.42v6.062ZM130.538,9.295c0-1.778,2.587-2.748,7.6-2.828,5.254,0,7.921.889,7.921,2.828,0,.89-.727,1.617-2.1,2.1a18.076,18.076,0,0,1-5.9.808Q130.538,12.2,130.538,9.295Z" transform="translate(0 0)"/>
  </g>
</svg>
