<svg enable-background="new 0 0 272 168" viewBox="0 0 272 168" xmlns="http://www.w3.org/2000/svg"><path d="m54.7 32.1h4.7c.6 0 1.2-.5 1.3-1.1l.1-.5c.6-3.4.5-6.6-.3-9.6s-2.1-5.7-4-7.9c-1.8-2.2-4.2-4-6.9-5.3s-5.8-1.9-9.2-1.9c-3.3 0-6.6.6-9.8 1.9-3.1 1.3-6 3-8.5 5.1s-4.7 4.7-6.5 7.6-3 6.1-3.6 9.5l-10.8 61.5c-.6 3.4-.5 6.6.3 9.6s2.1 5.7 3.9 7.9 4.2 4 7 5.3 5.9 2 9.3 2c3.3 0 6.6-.7 9.8-1.9 3.1-1.3 5.9-3 8.4-5.1s4.7-4.7 6.5-7.6 3-6.1 3.6-9.5l.1-.8c.1-.8-.5-1.5-1.3-1.5h-5.2c-1.3 0-2.5.9-2.9 2.2-.5 1.8-1.3 4.4-2 5.5-1.2 1.9-2.6 3.6-4.3 5.1-1.7 1.4-3.5 2.6-5.6 3.4-2 .8-4.1 1.3-6.2 1.3s-4-.4-5.7-1.2-3.1-1.9-4.2-3.2-1.9-2.9-2.4-4.8c-.5-1.8-.5-3.8-.2-5.9l10.9-61.7c.4-2.1 1.2-4.1 2.3-6 1.2-1.9 2.6-3.6 4.3-5s3.6-2.6 5.7-3.4c2-.8 4.2-1.3 6.3-1.3s4 .4 5.6 1.2 3 1.9 4.1 3.2 1.9 2.9 2.4 4.7c.3.9.2 3.1.1 4.9-.2 1.8 1.2 3.3 2.9 3.3z" fill="#7cc8d1"/><path d="m79.1 1.2-19.5 110.7c-.3 1.8 1.1 3.5 3 3.5h4.4c.6 0 1.2-.5 1.3-1.1l19.5-110.7c.3-1.8-1.1-3.5-3-3.5h-4.4c-.6 0-1.2.4-1.3 1.1z" fill="#7cc8d1"/><path d="m134.6 34.9c-.6 0-1.2.5-1.3 1.1l-10.1 57.1c-.3 1.9-1 3.8-2.1 5.5s-2.3 3.2-3.8 4.5-3.2 2.3-5 3-3.7 1.1-5.6 1.1-3.6-.4-5.1-1.1-2.7-1.6-3.7-2.8-1.7-2.6-2.1-4.2-.5-3.4-.1-5.3l9.8-55.4c.3-1.8-1.1-3.5-3-3.5h-4.4c-.6 0-1.2.5-1.3 1.1l-10.1 57.1c-.6 3.2-.5 6.2.2 9s1.9 5.3 3.7 7.4c1.7 2.1 3.9 3.8 6.5 5s5.5 1.8 8.7 1.8c3.4 0 6.7-.7 9.8-2.1 1.5-.7 3-1.5 4.3-2.4v.2c-.3 1.8 1.1 3.5 3 3.5h4.4c.6 0 1.2-.5 1.3-1.1l13.4-76c.3-1.8-1.1-3.5-3-3.5z" fill="#7cc8d1"/><path d="m197.2 48.3c-.7-2.8-1.9-5.3-3.7-7.4-1.7-2.1-3.9-3.8-6.5-5s-5.5-1.8-8.7-1.8c-3.4 0-6.7.7-9.8 2-1.5.6-3 1.4-4.4 2.3l6.2-34.9c.3-1.8-1.1-3.5-3-3.5h-4.3c-.6 0-1.2.5-1.3 1.1l-19.9 112.8c-.1.8.5 1.5 1.3 1.5h5c1.5 0 2.7-1 3-2.5l.3-1.6c1.2 1 2.5 1.9 3.9 2.7 2.7 1.4 5.9 2.2 9.3 2.2 3.1 0 6.2-.6 9.2-1.8 2.9-1.2 5.6-2.8 7.9-4.8s4.4-4.4 6-7.1c1.7-2.7 2.8-5.7 3.3-8.8l6.4-36.5c.6-3.1.5-6.1-.2-8.9zm-19.7-5.1c1.9 0 3.6.4 5.1 1.1s2.8 1.7 3.7 2.8c1 1.2 1.7 2.6 2.1 4.2s.5 3.4.1 5.3l-6.5 36.5c-.3 1.9-1 3.8-2.1 5.5s-2.3 3.2-3.8 4.5-3.2 2.3-5 3-3.7 1.1-5.6 1.1-3.6-.4-5.1-1.1-2.7-1.6-3.7-2.8-1.7-2.6-2.1-4.2-.5-3.4-.1-5.3l6.4-36.5c.3-1.9 1-3.8 2.1-5.5s2.3-3.2 3.8-4.5 3.2-2.3 5-3c1.8-.8 3.7-1.1 5.7-1.1z" fill="#7cc8d1"/><path d="m223.8 117.6-3.1-6.5c-2.2-4.5-5.9-8.1-10.5-10.1l-5.4-2.4 5.4-2.4c4.6-2 8.3-5.6 10.5-10.1l3.1-6.5 2.9 6c2 4.2 5.4 7.6 9.6 9.7l6.6 3.3-5.4 2.3c-4.9 2.1-8.9 5.9-11 10.8z" fill="#b0dde3"/><path d="m260.8 95.3-3.6-4.2c-2.5-2.9-5.9-4.9-9.7-5.5l-4.4-.7 3.5-2.8c3-2.4 5.1-5.8 5.8-9.5l1-5.4 3.3 3.9c2.3 2.7 5.5 4.6 9 5.3l5.5 1.1-3.5 2.7c-3.2 2.5-5.4 6.1-6 10.1z" fill="#cae8ec"/><path d="m229 62.4.1-3c.1-2.1-.6-4.1-1.9-5.7l-1.5-1.9 2.3.2c2.1.1 4.1-.5 5.8-1.8l2.4-1.8-.1 2.8c-.1 1.9.5 3.8 1.7 5.4l1.8 2.4-2.4-.2c-2.2-.2-4.4.5-6.1 1.9z" fill="#e4f3f5"/><g fill="#a1a5a6"><path d="m3.8 166v-30.3c0-.4.2-.8.6-1.1s.9-.5 1.5-.5h8.1c3.1 0 5.6.8 7.5 2.5 1.9 1.6 2.8 4.2 2.8 7.7v13c0 3.5-.9 6.1-2.8 7.7s-4.4 2.5-7.5 2.5h-8c-.6 0-1.1-.2-1.5-.5-.5-.2-.7-.6-.7-1zm4.9-2.7h5.4c3.6 0 5.4-2 5.4-5.9v-13c0-3.9-1.8-5.9-5.4-5.9h-5.4z"/><path d="m33.7 165.9v-30.2c0-.5.2-.9.6-1.2s.9-.4 1.5-.4h16.3c.5 0 .9.2 1.2.6s.4.9.4 1.5-.1 1.1-.4 1.6c-.3.4-.7.6-1.2.6h-13.6v10.5h7c.5 0 .9.2 1.2.6s.4.8.4 1.4c0 .5-.1.9-.4 1.3s-.7.6-1.2.6h-7v10.5h13.6c.5 0 .9.2 1.2.6s.4.9.4 1.6c0 .5-.1 1-.4 1.5-.3.4-.7.6-1.2.6h-16.3c-.6 0-1.1-.1-1.5-.4-.4-.4-.6-.8-.6-1.3z"/><path d="m61.2 165.9v-30.2c0-.4.2-.8.5-1.1s.8-.5 1.3-.5h9c3 0 5.5.8 7.3 2.4s2.7 4.2 2.7 7.6v.4c0 3.5-.9 6-2.8 7.7-1.9 1.6-4.4 2.4-7.5 2.4h-5.7v11.3c0 .5-.2.9-.7 1.2s-1 .4-1.7.4c-.6 0-1.2-.1-1.7-.4s-.7-.7-.7-1.2zm4.8-15.1h5.7c1.7 0 3.1-.5 4-1.5s1.4-2.5 1.4-4.5v-.5c0-2-.5-3.5-1.4-4.4-.9-1-2.3-1.5-4-1.5h-5.7z"/><path d="m89.8 165.9v-30.2c0-.5.2-.9.7-1.2s1-.4 1.7-.4 1.2.1 1.7.4.7.6.7 1.2v30.2c0 .5-.2.9-.7 1.2s-1 .4-1.7.4c-.6 0-1.2-.1-1.7-.4s-.7-.7-.7-1.2z"/><path d="m104.3 165.9v-30.2c0-.5.2-.9.7-1.2s1-.4 1.7-.4 1.2.1 1.7.4.7.6.7 1.2v27.6h11.9c.5 0 .8.2 1.1.6s.4.9.4 1.5-.1 1.1-.4 1.5-.6.6-1.1.6h-14.6c-.6 0-1.1-.1-1.5-.4s-.6-.7-.6-1.2z"/><path d="m129.7 165.9v-30.2c0-.5.2-.9.6-1.2s.9-.4 1.5-.4h16.3c.5 0 .9.2 1.2.6s.4.9.4 1.5-.1 1.1-.4 1.6c-.3.4-.7.6-1.2.6h-13.6v10.5h7c.5 0 .9.2 1.2.6s.4.8.4 1.4c0 .5-.1.9-.4 1.3s-.7.6-1.2.6h-7v10.5h13.6c.5 0 .9.2 1.2.6s.4.9.4 1.6c0 .5-.1 1-.4 1.5-.3.4-.7.6-1.2.6h-16.3c-.6 0-1.1-.1-1.5-.4-.4-.4-.6-.8-.6-1.3z"/><path d="m154.9 165.5c0-.2 0-.3 0-.4l9.1-29.6c.4-1.1 1.5-1.6 3.2-1.6 1.8 0 2.9.5 3.3 1.5l9 29.6c.1.2.1.3.1.4 0 .6-.4 1.1-1.1 1.5s-1.5.6-2.3.6c-1 0-1.6-.3-1.8-1l-1.9-6.5h-11.2l-1.9 6.5c-.2.7-.8 1-1.7 1-.7 0-1.4-.2-2.1-.6-.4-.3-.7-.8-.7-1.4zm7.7-9.3h9.1l-4.6-15.7z"/><path d="m184.9 162.5c0-.6.2-1.2.6-1.7.4-.6.9-.9 1.5-.9.3 0 .7.2 1.2.6s.9.8 1.4 1.3 1.1.9 2.1 1.3c.9.4 2 .6 3.1.6 1.7 0 3.1-.4 4.2-1.2s1.6-2 1.6-3.6c0-1.5-.5-2.7-1.5-3.7s-2.3-1.8-3.7-2.3c-1.4-.6-2.9-1.2-4.4-1.9s-2.7-1.7-3.7-3-1.5-3-1.5-5.1c0-1.6.3-3 .9-4.2s1.5-2.1 2.5-2.7c1.1-.6 2.2-1.1 3.4-1.4s2.4-.4 3.7-.4c.8 0 1.7.1 2.6.2s1.8.3 2.7.5 1.6.6 2.2 1c.6.5.9 1 .9 1.5s-.2 1.1-.5 1.7-.9.9-1.5.9c-.3 0-.7-.1-1.2-.4s-1.2-.6-2.1-.9-1.9-.4-3-.4c-1.7 0-3.1.3-4.2 1-1 .7-1.6 1.7-1.6 3.1 0 .9.3 1.7.8 2.4s1.3 1.2 2.1 1.6 1.8.9 2.9 1.3 2.1.9 3.2 1.4c1.1.6 2 1.2 2.9 1.9s1.6 1.7 2.1 3 .8 2.7.8 4.4c0 3.1-1 5.5-2.9 7.2-1.9 1.6-4.4 2.5-7.6 2.5-2.8 0-5.2-.6-7.2-1.8-1.8-1.3-2.8-2.5-2.8-3.8z"/><path d="m211.2 136.2c0-.5.3-1 1-1.4s1.4-.6 2.1-.6 1.2.4 1.6 1.1l7.5 14.5 7.5-14.5c.4-.7.9-1.1 1.6-1.1s1.4.2 2 .6 1 .9 1 1.4c0 .3 0 .5-.1.7l-9.5 17c-.1.2-.1.4-.1.5v11.6c0 .5-.2.9-.7 1.2s-1.1.4-1.7.4c-.7 0-1.2-.1-1.7-.4s-.7-.7-.7-1.2v-11.6c0-.1 0-.2-.1-.5l-9.5-17c-.1-.3-.2-.5-.2-.7z"/></g></svg>